HIERARCHY
ROOT Hips
{
	OFFSET 0.000000 1.471914 24.280096
	CHANNELS 6 Xposition Yposition Zposition Xrotation Yrotation Zrotation
	JOINT Spine
	{
		OFFSET 0.000000 0.900110 1.860670
		CHANNELS 6 Xposition Yposition Zposition Xrotation Yrotation Zrotation
		JOINT Spine1
		{
			OFFSET 0.000000 0.400320 2.270309
			CHANNELS 6 Xposition Yposition Zposition Xrotation Yrotation Zrotation
			JOINT Spine2
			{
				OFFSET 0.000000 0.200920 2.296560
				CHANNELS 6 Xposition Yposition Zposition Xrotation Yrotation Zrotation
				JOINT Spine3
				{
					OFFSET 0.000000 0.000000 2.305330
					CHANNELS 6 Xposition Yposition Zposition Xrotation Yrotation Zrotation
					JOINT Neck
					{
						OFFSET 0.000000 -0.864490 6.051487
						CHANNELS 6 Xposition Yposition Zposition Xrotation Yrotation Zrotation
						JOINT Head
						{
							OFFSET 0.000000 -0.550429 3.121674
							CHANNELS 6 Xposition Yposition Zposition Xrotation Yrotation Zrotation
							End Site
							{
								OFFSET 0.000000 0.000000 3.731750
							}
						}
					}
					JOINT RightShoulder
					{
						OFFSET -0.788280 -1.313800 4.256718
						CHANNELS 6 Xposition Yposition Zposition Xrotation Yrotation Zrotation
						JOINT RightArm
						{
							OFFSET -3.915130 0.000000 0.000000
							CHANNELS 6 Xposition Yposition Zposition Xrotation Yrotation Zrotation
							JOINT RightForeArm
							{
								OFFSET -6.914910 0.000000 0.000000
								CHANNELS 6 Xposition Yposition Zposition Xrotation Yrotation Zrotation
								JOINT RightHand
								{
									OFFSET -6.096219 0.000000 0.000000
									CHANNELS 6 Xposition Yposition Zposition Xrotation Yrotation Zrotation
									JOINT RightHandEnd
									{
										OFFSET -1.749950 0.000000 0.000000
										CHANNELS 6 Xposition Yposition Zposition Xrotation Yrotation Zrotation
										End Site
										{
											OFFSET -1.749950 0.000000 0.000000
										}
									}
									JOINT RightHandThumb1
									{
										OFFSET -0.699980 -1.166630 -0.466648
										CHANNELS 6 Xposition Yposition Zposition Xrotation Yrotation Zrotation
										End Site
										{
											OFFSET -1.690319 -0.452920 0.000000
										}
									}
								}
							}
						}
					}
					JOINT LeftShoulder
					{
						OFFSET 0.788280 -1.313800 4.256718
						CHANNELS 6 Xposition Yposition Zposition Xrotation Yrotation Zrotation
						JOINT LeftArm
						{
							OFFSET 3.915130 0.000000 0.000000
							CHANNELS 6 Xposition Yposition Zposition Xrotation Yrotation Zrotation
							JOINT LeftForeArm
							{
								OFFSET 6.914910 0.000000 0.000000
								CHANNELS 6 Xposition Yposition Zposition Xrotation Yrotation Zrotation
								JOINT LeftHand
								{
									OFFSET 6.096219 0.000000 0.000000
									CHANNELS 6 Xposition Yposition Zposition Xrotation Yrotation Zrotation
									JOINT LeftHandEnd
									{
										OFFSET 1.749950 0.000000 0.000000
										CHANNELS 6 Xposition Yposition Zposition Xrotation Yrotation Zrotation
										End Site
										{
											OFFSET 1.749950 0.000000 0.000000
										}
									}
									JOINT LeftHandThumb1
									{
										OFFSET 0.699980 -1.166630 -0.466648
										CHANNELS 6 Xposition Yposition Zposition Xrotation Yrotation Zrotation
										End Site
										{
											OFFSET 1.690319 -0.452920 0.000000
										}
									}
								}
							}
						}
					}
				}
			}
		}
	}
	JOINT RightUpLeg
	{
		OFFSET -2.338570 -0.252550 -0.551512
		CHANNELS 6 Xposition Yposition Zposition Xrotation Yrotation Zrotation
		JOINT RightLeg
		{
			OFFSET 0.000000 0.000000 -10.744959
			CHANNELS 6 Xposition Yposition Zposition Xrotation Yrotation Zrotation
			JOINT RightFoot
			{
				OFFSET 0.000000 -0.000001 -10.930849
				CHANNELS 6 Xposition Yposition Zposition Xrotation Yrotation Zrotation
				JOINT RightToeBase
				{
					OFFSET 0.000000 -4.087269 -1.487650
					CHANNELS 6 Xposition Yposition Zposition Xrotation Yrotation Zrotation
					End Site
					{
						OFFSET 0.000000 -1.891870 0.000000
					}
				}
			}
		}
	}
	JOINT LeftUpLeg
	{
		OFFSET 2.338570 -0.252550 -0.551512
		CHANNELS 6 Xposition Yposition Zposition Xrotation Yrotation Zrotation
		JOINT LeftLeg
		{
			OFFSET 0.000000 0.000000 -10.744959
			CHANNELS 6 Xposition Yposition Zposition Xrotation Yrotation Zrotation
			JOINT LeftFoot
			{
				OFFSET 0.000000 -0.000001 -10.930849
				CHANNELS 6 Xposition Yposition Zposition Xrotation Yrotation Zrotation
				JOINT LeftToeBase
				{
					OFFSET 0.000000 -4.087269 -1.487650
					CHANNELS 6 Xposition Yposition Zposition Xrotation Yrotation Zrotation
					End Site
					{
						OFFSET 0.000000 -1.891870 0.000000
					}
				}
			}
		}
	}
}
MOTION
Frames: 4
Frame Time: 0.041667
-0.000051 26.511650 40.166039 -7.590655 3.624045 -21.105360 0.000003 0.900112 1.860662 21.712925 -2.301360 -0.744774 0.000004 0.400314 2.270302 -0.000002 0.000001 0.000001 0.000004 0.200920 2.296555 0.000000 0.000000 0.000001 0.000004 -0.000002 2.305338 0.000013 0.000000 1.635521 -0.000002 -0.864482 6.051482 -0.422594 0.758202 -176.002309 0.000000 -0.550429 3.121689 -0.000001 0.000001 0.000001 -0.788286 -1.313796 4.256722 -118.755475 43.340952 -49.792427 -3.915139 0.000005 0.000008 -0.000002 0.000002 -0.000000 -6.914898 0.000010 0.000003 0.000008 -0.000009 -43.899586 -6.096215 -0.000008 0.000003 -0.000062 -0.000067 -0.000009 -1.749955 0.000007 -0.000011 0.000002 -0.000003 0.000000 -0.699992 -1.166622 -0.466644 0.000003 -0.000002 -0.000001 0.788277 -1.313814 4.256714 -121.085184 -48.057996 46.343206 3.915136 0.000005 -0.000000 -0.000003 0.000002 -0.000001 6.914902 0.000013 -0.000004 0.000009 0.000005 39.637702 6.096231 -0.000001 -0.000005 -0.000058 0.000073 -0.000000 1.749949 -0.000006 -0.000003 0.000006 -0.000000 0.000000 0.699971 -1.166627 -0.466656 0.000010 -0.000001 -0.000002 -2.338571 -0.252547 -0.551506 22.109783 -2.594058 -0.754841 -0.000002 0.000002 -10.744961 5.627493 3.589524 -0.435077 0.000001 0.000003 -10.930850 -0.000005 -0.000003 0.000001 0.000002 -4.087270 -1.487644 0.000003 -0.000000 0.000004 2.338572 -0.252550 -0.551506 18.500174 -2.577702 -0.641341 -0.000001 0.000005 -10.744958 5.093515 -0.183441 -0.400048 0.000001 0.000005 -10.930846 -0.000005 -0.000006 -0.000004 0.000000 -4.087269 -1.487651 0.000001 0.000001 0.000003 
-0.000047 26.511646 40.166042 -7.395960 3.825544 -21.111575 0.000001 0.900108 1.860669 21.541307 -2.555068 -0.684009 0.000006 0.400314 2.270306 -0.000002 0.000000 0.000001 0.000003 0.200921 2.296560 -0.000000 0.000001 0.000002 0.000006 -0.000001 2.305331 0.000017 -0.000002 1.765922 -0.000001 -0.864481 6.051479 -0.271090 0.086114 -175.690743 0.000000 -0.550434 3.121693 -0.000000 0.000000 -0.000002 -0.788283 -1.313796 4.256721 -121.524556 44.057469 -46.718678 -3.915139 0.000008 0.000008 0.000001 -0.000000 0.000001 -6.914903 0.000013 0.000004 0.000006 -0.000007 -43.474830 -6.096221 -0.000008 0.000003 -0.000060 -0.000065 -0.000003 -1.749957 0.000007 -0.000004 -0.000001 -0.000001 0.000002 -0.699988 -1.166624 -0.466638 0.000005 0.000002 -0.000001 0.788274 -1.313806 4.256717 -124.789236 -49.188902 42.358029 3.915130 0.000008 -0.000000 -0.000001 0.000001 -0.000001 6.914904 0.000009 0.000004 0.000009 0.000005 39.218939 6.096225 -0.000001 -0.000001 -0.000058 0.000076 -0.000003 1.749946 -0.000005 -0.000003 0.000004 -0.000000 0.000001 0.699968 -1.166624 -0.466656 0.000004 -0.000000 -0.000003 -2.338572 -0.252551 -0.551500 21.943340 -2.967205 -0.693539 -0.000000 0.000001 -10.744958 5.975791 3.869294 -0.486412 0.000000 0.000003 -10.930852 -0.000005 -0.000005 0.000003 0.000002 -4.087277 -1.487647 0.000004 0.000000 0.000002 2.338570 -0.252553 -0.551498 18.337687 -3.093052 -0.588687 -0.000001 0.000003 -10.744961 5.169075 0.427533 -0.439553 -0.000001 0.000003 -10.930844 -0.000003 -0.000004 -0.000004 0.000002 -4.087265 -1.487652 0.000005 -0.000001 0.000003 
-0.000040 26.511633 40.166035 -7.097902 3.937688 -21.182421 -0.000000 0.900109 1.860672 21.141847 -2.715750 -0.637895 0.000004 0.400309 2.270308 -0.000001 0.000000 -0.000000 0.000003 0.200920 2.296555 0.000000 0.000000 0.000002 0.000004 0.000001 2.305331 0.000015 0.000001 1.896826 0.000000 -0.864483 6.051484 -0.041849 -0.165413 -175.827770 0.000000 -0.550432 3.121681 -0.000000 -0.000000 -0.000000 -0.788284 -1.313797 4.256720 -125.219142 45.232132 -42.684673 -3.915143 0.000001 0.000008 -0.000001 0.000001 -0.000001 -6.914904 0.000012 -0.000000 0.000006 -0.000007 -43.139434 -6.096215 -0.000010 0.000008 -0.000064 -0.000067 -0.000003 -1.749956 0.000008 -0.000007 0.000003 0.000001 0.000001 -0.699992 -1.166623 -0.466641 0.000003 0.000001 -0.000004 0.788277 -1.313811 4.256721 -127.818056 -49.396690 38.701699 3.915131 0.000007 0.000007 -0.000006 0.000001 -0.000003 6.914900 0.000013 -0.000001 0.000010 0.000002 39.808180 6.096225 0.000001 -0.000001 -0.000055 0.000074 0.000002 1.749954 -0.000005 -0.000002 0.000002 -0.000004 0.000001 0.699974 -1.166623 -0.466659 -0.000001 -0.000001 0.000000 -2.338574 -0.252553 -0.551496 21.582800 -3.214326 -0.648329 -0.000001 -0.000001 -10.744958 6.212014 4.103184 -0.523230 0.000001 -0.000002 -10.930850 -0.000007 -0.000005 -0.000001 0.000005 -4.087277 -1.487648 0.000004 -0.000002 -0.000001 2.338568 -0.252552 -0.551497 18.002886 -3.228289 -0.548872 -0.000000 0.000005 -10.744955 5.122744 0.435141 -0.440013 -0.000001 0.000000 -10.930843 -0.000007 -0.000007 -0.000001 0.000001 -4.087270 -1.487653 0.000001 0.000000 0.000001 
-0.000026 26.511623 40.166031 -6.999796 3.878082 -21.066380 0.000002 0.900110 1.860664 20.829625 -2.533886 -0.658437 0.000004 0.400316 2.270308 -0.000001 -0.000001 -0.000002 0.000002 0.200919 2.296558 0.000001 0.000001 0.000002 0.000005 0.000001 2.305331 0.000017 -0.000001 2.223019 -0.000002 -0.864480 6.051490 -0.141286 -0.309094 -176.502607 0.000001 -0.550431 3.121685 0.000001 -0.000000 0.000005 -0.788288 -1.313796 4.256728 -130.090133 46.371691 -38.090186 -3.915135 0.000002 0.000008 0.000001 0.000004 0.000000 -6.914889 0.000012 0.000007 0.000005 -0.000008 -42.916432 -6.096220 -0.000012 0.000005 -0.000065 -0.000067 -0.000009 -1.749955 0.000007 -0.000007 0.000001 -0.000001 -0.000004 -0.699996 -1.166623 -0.466637 0.000001 0.000002 -0.000004 0.788274 -1.313806 4.256720 -131.491359 -48.307435 34.232645 3.915129 0.000004 -0.000004 0.000006 0.000001 -0.000003 6.914897 0.000012 -0.000003 0.000007 0.000008 40.336242 6.096225 -0.000002 -0.000005 -0.000051 0.000077 -0.000002 1.749949 -0.000007 0.000009 0.000004 -0.000002 -0.000000 0.699970 -1.166627 -0.466649 0.000001 -0.000003 -0.000003 -2.338572 -0.252550 -0.551506 21.392620 -3.195906 -0.673454 -0.000001 0.000001 -10.744957 6.488438 3.954024 -0.553321 0.000002 0.000003 -10.930849 -0.000007 -0.000004 0.000001 0.000004 -4.087273 -1.487646 0.000007 0.000001 0.000002 2.338571 -0.252554 -0.551501 17.776354 -3.238102 -0.567619 -0.000001 0.000005 -10.744959 5.058282 0.533418 -0.442505 -0.000001 0.000003 -10.930846 -0.000003 -0.000006 -0.000002 -0.000001 -4.087268 -1.487652 0.000002 0.000000 0.000004 
